<svg width="1109" height="2771" viewBox="0 0 1109 2771" fill="none" xmlns="http://www.w3.org/2000/svg">
<path d="M1101.9 1611.4C932.71 1588.06 763.539 1564.7 594.369 1541.34C423.447 1517.74 252.525 1494.14 81.585 1470.56C23.2139 1235.37 5.56041 1026.78 2.51172 876.902C0.984584 801.826 3.12263 741.489 5.64062 699.929C6.89962 679.149 8.25321 663.063 9.29199 652.178C9.81136 646.735 10.2521 642.593 10.5625 639.813C10.5774 639.68 10.5922 639.551 10.6064 639.424L1101.9 1611.4Z" stroke="#1765D4" stroke-width="4"/>
<path d="M1106.15 1122.86C1032.52 1122.32 927.917 1092 812.045 1046.53C695.194 1000.67 567.143 939.517 448.32 878.345C329.504 817.176 219.946 756.005 140.092 710.125C100.165 687.185 67.6659 668.069 45.1494 654.688C33.8914 647.998 25.1287 642.742 19.1816 639.159C17.4981 638.145 16.0415 637.262 14.8164 636.521C17.0349 636.169 19.9096 635.698 23.4072 635.098C32.5671 633.525 46.0008 631.062 63.1133 627.499C97.3376 620.373 146.281 608.846 205.188 591.238C322.996 556.025 480.691 496.481 640.211 399.15C799.691 301.845 917.051 202.388 994.552 127.244C1033.3 89.6718 1062.09 58.1764 1081.2 36.0654C1090.75 25.0102 1097.88 16.3009 1102.63 10.3506C1104 8.63209 1105.17 7.14279 1106.15 5.89453V1122.86Z" stroke="#1765D4" stroke-width="4"/>
<path d="M1106.22 2767.88C1105.17 2767.39 1103.84 2766.77 1102.23 2766.01C1097.75 2763.89 1091.14 2760.69 1082.62 2756.41C1065.59 2747.85 1040.93 2734.94 1010.47 2717.56C949.554 2682.79 865.412 2630.13 772.562 2558.57C587.53 2415.98 367.991 2198.4 228.64 1897.93C369.168 1917.32 544.807 1915.44 731.049 1849.69C906.806 1787.61 1030.83 1690.21 1106.22 1618.95V2767.88Z" stroke="#1765D4" stroke-width="4"/>
</svg>
