<svg width="2359" height="2771" viewBox="0 0 2359 2771" fill="none" xmlns="http://www.w3.org/2000/svg">
<path d="M1098.78 1609.96C930.675 1586.77 762.591 1563.56 594.506 1540.35C423.807 1516.78 253.109 1493.21 82.3926 1469.66C24.1733 1234.83 6.55642 1026.56 3.51172 876.883C1.98518 801.837 4.12214 741.525 6.63867 699.989C7.89692 679.222 9.25035 663.148 10.2881 652.273C10.7187 647.762 11.0951 644.145 11.3877 641.459L1098.78 1609.96Z" stroke="#0451BD" stroke-width="6"/>
<path d="M1105.15 1121.85C1031.78 1121.04 927.748 1090.86 812.41 1045.59C695.604 999.757 567.585 938.62 448.777 877.456C329.979 816.296 220.436 755.133 140.59 709.258C100.668 686.321 68.173 667.207 45.6602 653.829C34.404 647.14 25.6437 641.885 19.6982 638.303C18.9788 637.869 18.3015 637.458 17.665 637.074C19.3782 636.794 21.3515 636.465 23.5762 636.083C32.7469 634.508 46.1919 632.043 63.3164 628.478C97.5649 621.347 146.537 609.813 205.475 592.196C323.341 556.966 481.12 497.39 640.732 400.004C800.284 302.654 917.702 203.15 995.248 127.962C1034.02 90.3677 1062.83 58.8511 1081.95 36.7197C1091.51 25.6539 1098.66 16.9338 1103.41 10.9736C1104.03 10.1981 1104.61 9.46926 1105.15 8.78809V1121.85Z" stroke="#0451BD" stroke-width="6"/>
<path d="M1105.22 2766.31C1104.46 2765.96 1103.61 2765.56 1102.65 2765.1C1098.18 2762.99 1091.58 2759.8 1083.07 2755.52C1066.05 2746.97 1041.41 2734.06 1010.97 2716.69C950.081 2681.94 865.98 2629.3 773.173 2557.78C588.56 2415.51 369.619 2198.59 230.319 1899.17C369.551 1918.15 542.989 1916.2 726.977 1852.17L731.382 1850.63C906.007 1788.95 1029.61 1692.44 1105.22 1621.27V2766.31Z" stroke="#0451BD" stroke-width="6"/>
<path d="M2346.93 641.459C2347.22 644.145 2347.6 647.762 2348.03 652.273C2349.06 663.148 2350.42 679.222 2351.68 699.989C2354.19 741.525 2356.33 801.837 2354.8 876.883C2351.76 1026.56 2334.14 1234.83 2275.92 1469.66C2105.21 1493.21 1934.51 1516.78 1763.81 1540.35C1595.72 1563.56 1427.64 1586.77 1259.54 1609.96L2346.93 641.459Z" stroke="#0451BD" stroke-width="6"/>
<path d="M1253.16 8.78711C1253.7 9.46858 1254.28 10.1977 1254.9 10.9736C1259.65 16.9338 1266.79 25.654 1276.36 36.7197C1295.48 58.8511 1324.29 90.3676 1363.06 127.962C1440.61 203.15 1558.03 302.654 1717.58 400.004C1877.19 497.39 2034.97 556.966 2152.83 592.196C2211.77 609.813 2260.74 621.347 2294.99 628.478C2312.12 632.043 2325.56 634.508 2334.73 636.083C2336.96 636.465 2338.93 636.794 2340.64 637.074C2340.01 637.458 2339.33 637.87 2338.61 638.303C2332.67 641.885 2323.9 647.14 2312.65 653.829C2290.14 667.207 2257.64 686.321 2217.72 709.258C2137.87 755.133 2028.33 816.296 1909.53 877.456C1790.72 938.62 1662.71 999.757 1545.9 1045.59C1430.56 1090.86 1326.53 1121.04 1253.16 1121.85V8.78711Z" stroke="#0451BD" stroke-width="6"/>
<path d="M1253.16 1621.27C1328.78 1692.44 1452.38 1788.95 1627 1850.63C1812.62 1916.17 1987.72 1918.31 2128.06 1899.17C1988.76 2198.59 1769.82 2415.51 1585.21 2557.78C1492.4 2629.3 1408.3 2681.94 1347.41 2716.69C1316.97 2734.06 1292.33 2746.97 1275.31 2755.52C1266.81 2759.8 1260.2 2762.99 1255.73 2765.1C1254.78 2765.56 1253.92 2765.96 1253.16 2766.31V1621.27Z" stroke="#0451BD" stroke-width="6"/>
</svg>
